/* XPM */
static char * close_xpm[] = {
"28 28 98 2",
"  	c None",
". 	c #024DA7",
"+ 	c #024DAA",
"@ 	c #024DA9",
"# 	c #034DA9",
"$ 	c #024DAC",
"% 	c #034DAC",
"& 	c #034DAF",
"* 	c #034DAE",
"= 	c #024DAF",
"- 	c #034DB1",
"; 	c #044DB1",
"> 	c #044DB2",
", 	c #034DB2",
"' 	c #044DB4",
") 	c #034DB4",
"! 	c #034DB3",
"~ 	c #044DB3",
"{ 	c #044DB7",
"] 	c #044DB6",
"^ 	c #034DB7",
"/ 	c #034DB6",
"( 	c #054DB9",
"_ 	c #044DB9",
": 	c #84D6FF",
"< 	c #044DBA",
"[ 	c #054DBC",
"} 	c #044DBC",
"| 	c #054DBB",
"1 	c #054DBE",
"2 	c #044DBE",
"3 	c #054DBF",
"4 	c #044DBF",
"5 	c #054DC1",
"6 	c #054DC2",
"7 	c #064DC1",
"8 	c #064DC4",
"9 	c #054DC4",
"0 	c #064DC3",
"a 	c #064DC7",
"b 	c #064DC6",
"c 	c #054DC6",
"d 	c #054DC7",
"e 	c #074DCA",
"f 	c #074DC9",
"g 	c #064DCA",
"h 	c #064DC9",
"i 	c #074DCC",
"j 	c #064DCB",
"k 	c #064DCC",
"l 	c #074DCB",
"m 	c #074DCE",
"n 	c #074DCF",
"o 	c #064DCE",
"p 	c #064DCF",
"q 	c #084DD2",
"r 	c #074DD1",
"s 	c #084DD1",
"t 	c #074DD2",
"u 	c #074DD4",
"v 	c #084DD4",
"w 	c #084DD3",
"x 	c #084DD6",
"y 	c #084DD7",
"z 	c #074DD7",
"A 	c #074DD6",
"B 	c #084DD9",
"C 	c #094DD9",
"D 	c #084DDA",
"E 	c #084DDC",
"F 	c #094DDC",
"G 	c #094DDB",
"H 	c #084DDB",
"I 	c #094DDF",
"J 	c #094DDE",
"K 	c #084DDE",
"L 	c #084DDF",
"M 	c #094DE1",
"N 	c #0A4DE1",
"O 	c #0A4DE2",
"P 	c #094DE4",
"Q 	c #0A4DE3",
"R 	c #094DE3",
"S 	c #0A4DE4",
"T 	c #094DE6",
"U 	c #0A4DE6",
"V 	c #0A4DE7",
"W 	c #0A4DE9",
"X 	c #0B4DE9",
"Y 	c #0A4DEA",
"Z 	c #0A4DEB",
"` 	c #0A4DEC",
" .	c #0B4DEB",
"..	c #0B4DEC",
"+.	c #0B4DEE",
"@.	c #0A4DEE",
"#.	c #0B4DEF",
"$.	c #0A4DEF",
". . . . . . . . . . . . . . . . . . . . . . . . . . . . ",
"+ @ @ + + + @ @ @ @ # @ @ # # @ + + # # @ # + @ @ + + @ ",
"$ $ % % $ % $ % % % $ % % % $ % $ % $ % % $ % % $ $ $ % ",
"& * * * & * & & & * & * * * * * * * & & & & * * * & * = ",
"- - - ; - - > , - - - ; - , ; - - ; ; - - - , - ; - - - ",
"' ' ' ' ) ' ! ' ' ' ) ) ' ' ~ ~ ' ) ' ) ' ~ ) ' ' ' ' ' ",
"{ { { { ] { ] ] { { ] ] ] ^ { ] { / ] ] { ] ] { { { { ] ",
"( _ ( _ _ _ ( : : _ _ _ _ ( ( _ < < _ : : _ _ ( _ _ _ _ ",
"[ [ } } [ } [ : : : [ [ } } | } [ [ : : : [ [ [ [ [ } [ ",
"1 2 3 1 3 1 3 3 : : : 1 3 1 2 3 3 : : : 3 1 3 1 4 1 1 4 ",
"5 5 5 5 5 6 5 5 5 : : : 5 6 5 5 : : : 6 5 5 5 5 7 5 5 7 ",
"8 9 8 8 8 8 8 0 8 8 : : : 0 9 : : : 9 9 9 9 8 8 8 9 9 8 ",
"a a b b a c b d b b b : : : : : : c b a a a b b a d a c ",
"e e f g h f h h h h h h : : : : h h h h g g g h g f h h ",
"i j j k i i k j k i l i : : : : k i i i k j i i i k k k ",
"m m m m m n o n p n m : : : : : : n n n m m m m m n n o ",
"q r s r s r r r r r : : : r t : : : r r r t r r r r r r ",
"u v w u u v u u u : : : v v u v : : : u u w v u v u w u ",
"x y x y x x x z : : : x x z x y x : : : x x A y y z y x ",
"B B B B B B C : : : B B B B B D B B : : : B C D B B B B ",
"E F G E E E E : : H G F E E F H E F E : : E F E E H E E ",
"I I J J J I K I I J J J L J I J J J J I K I L J L J I J ",
"M M M M M M M M M M M M M M N M M M M M O M M M M M M M ",
"P Q P P R S P P R P S R P P Q P R Q P S S S S Q P P P P ",
"T U V V U U U U V V U V U T V U V U U U V U V V T U U T ",
"W W W X W Y X X W Y W W W W W W W W W W W W W W W W W W ",
"Z Z ` `  .` ` ` ` ` Z  .......Z Z ` ` Z Z ` ..Z ` Z .. .",
"+.+.@.+.@.+.@.+.#.#.+.+.$.+.$.#.+.#.@.+.+.$.@.+.#.@.@.@."};
