/* XPM */
static char * min_pressed_xpm[] = {
"28 28 94 2",
"  	c None",
". 	c #0060D6",
"+ 	c #005FD2",
"@ 	c #005ED2",
"# 	c #005CCE",
"$ 	c #005DCE",
"% 	c #005BCB",
"& 	c #005BCA",
"* 	c #005ACA",
"= 	c #005ACB",
"- 	c #0059C6",
"; 	c #0059C7",
"> 	c #0058C6",
", 	c #0057C2",
"' 	c #0058C2",
") 	c #0057C3",
"! 	c #0056BE",
"~ 	c #0055BE",
"{ 	c #0055BF",
"] 	c #0056BF",
"^ 	c #0054BB",
"/ 	c #0054BA",
"( 	c #0053BB",
"_ 	c #0053BA",
": 	c #0052B7",
"< 	c #0051B7",
"[ 	c #0052B6",
"} 	c #0051B6",
"| 	c #0050B3",
"1 	c #0051B3",
"2 	c #0050B2",
"3 	c #0051B2",
"4 	c #004FAE",
"5 	c #004EAE",
"6 	c #004FAF",
"7 	c #004EAF",
"8 	c #004DAA",
"9 	c #004DAB",
"0 	c #004CAA",
"a 	c #004CAB",
"b 	c #004BA6",
"c 	c #004BA7",
"d 	c #FFFFFF",
"e 	c #004AA6",
"f 	c #0049A3",
"g 	c #0049A2",
"h 	c #00479F",
"i 	c #00479E",
"j 	c #00489F",
"k 	c #00469A",
"l 	c #00459A",
"m 	c #00469B",
"n 	c #00459B",
"o 	c #004496",
"p 	c #004497",
"q 	c #004397",
"r 	c #004396",
"s 	c #004293",
"t 	c #004292",
"u 	c #004193",
"v 	c #00408F",
"w 	c #00418F",
"x 	c #00408E",
"y 	c #003F8B",
"z 	c #003E8A",
"A 	c #003E8B",
"B 	c #003F8A",
"C 	c #003D86",
"D 	c #003D87",
"E 	c #003C87",
"F 	c #003C86",
"G 	c #003B82",
"H 	c #003B83",
"I 	c #003A83",
"J 	c #00397E",
"K 	c #003A7F",
"L 	c #00397F",
"M 	c #003A7E",
"N 	c #00377B",
"O 	c #00387B",
"P 	c #00377A",
"Q 	c #003577",
"R 	c #003677",
"S 	c #003676",
"T 	c #003576",
"U 	c #003473",
"V 	c #003472",
"W 	c #003373",
"X 	c #00326E",
"Y 	c #00326F",
"Z 	c #00336F",
"` 	c #00316B",
" .	c #00306B",
"..	c #00306A",
". . . . . . . . . . . . . . . . . . . . . . . . . . . . ",
"+ @ + @ @ + @ @ @ @ @ @ @ @ @ @ @ @ + @ + @ @ @ @ @ + @ ",
"# # # $ $ $ # # $ # # # $ # $ # $ $ # # # $ # # $ # $ $ ",
"% & & & * * & * & & * = & = & & & = * & * & & & & & * & ",
"- - ; - - > - ; - ; ; - > - - - - ; - - - - ; ; - - - - ",
", , , ' , ' ) , , , , , ' , , , ) , ) ' , ) , ' , ) , ' ",
"! ! ~ ! ~ ~ { ! { ! ~ ~ ~ ] ~ ! { ~ { ! ~ ~ ~ ! ~ ~ ~ ~ ",
"^ / ( / ( / / / ^ / / ( / / _ _ _ ^ _ / / / / / / _ ^ ^ ",
": < [ [ [ } [ [ [ [ [ < [ [ : [ [ [ [ [ [ [ } [ [ [ [ [ ",
"| | 1 | 2 3 | | 2 | | | 2 2 3 2 | 2 2 | 2 | 2 | | 2 | 2 ",
"4 5 5 5 5 6 5 6 5 5 5 5 6 7 6 5 5 5 5 4 7 5 5 7 4 5 7 5 ",
"8 9 8 9 0 8 9 8 0 9 9 a a a 8 8 a 8 8 8 8 a 0 8 8 8 9 a ",
"b b c c c c c d d d d d d d d d d d d d d b e c b c b c ",
"f f f g g g g d d d d d d d d d d d d d d f f g f f g f ",
"h h h i h j i d d d d d d d d d d d d d d i i i h i h i ",
"k l l m m n n d d d d d d d d d d d d d d m k l m k n k ",
"o p p p o q p q o q r p p o q p p o o o q o o o o p p p ",
"s s t s s s t t t s t t s t t s t s t s u s t s t s s u ",
"v v w w v v w x v v w v v v x x v v x x v v w w v w v x ",
"y z z y y y y A y A z A A A z A y A A z z z y A y B A y ",
"C D D E D E D D D D D E D D E C D F D D E C D C D D C D ",
"G H H H H H H H G H I H G H H H H H H G H H H H H H H H ",
"J K J L J L J L L J K L L J L L L M K L L L J L L L L J ",
"N O N N N N O O N P N O P N N O O O P P P N N N N P O P ",
"Q R Q Q Q R R Q R Q R R R R S Q R R Q Q Q R T Q R T Q Q ",
"U V U U U U U U U U W W W U U U U U U U U U U V U U U W ",
"X Y Y Y Y Y Y Y Y X Z Z Y Y Y Y X X Y Z Z Y X Z Z Y Y Z ",
"`  . . . . . . . . . . . . . .`  . . . . . .`  . . ... ."};
