/* XPM */
static char * stick_unfocus_xpm[] = {
"28 28 144 2",
"  	c None",
". 	c #86A5CC",
"+ 	c #85A4CB",
"@ 	c #85A3CB",
"# 	c #84A4CB",
"$ 	c #85A4CA",
"% 	c #84A3CA",
"& 	c #84A3C9",
"* 	c #83A3CA",
"= 	c #84A2CA",
"- 	c #83A2C9",
"; 	c #83A2CA",
"> 	c #84A2C9",
", 	c #83A2C8",
"' 	c #82A1C9",
") 	c #83A1C8",
"! 	c #82A2C8",
"~ 	c #82A2C9",
"{ 	c #83A1C9",
"] 	c #82A0C7",
"^ 	c #81A1C7",
"/ 	c #81A0C7",
"( 	c #82A1C7",
"_ 	c #809FC5",
": 	c #81A0C6",
"< 	c #809FC6",
"[ 	c #80A0C6",
"} 	c #819FC6",
"| 	c #819FC5",
"1 	c #809EC4",
"2 	c #7F9EC4",
"3 	c #809EC5",
"4 	c #7F9EC5",
"5 	c #7F9FC4",
"6 	c #7E9DC3",
"7 	c #7E9CC4",
"8 	c #7E9CC3",
"9 	c #A7B8CE",
"0 	c #7F9DC3",
"a 	c #7D9BC2",
"b 	c #7D9CC2",
"c 	c #7D9CC1",
"d 	c #7D9BC1",
"e 	c #7C9AC1",
"f 	c #7C9AC0",
"g 	c #7C9BC1",
"h 	c #7C9BC0",
"i 	c #7B9BC0",
"j 	c #7B9AC1",
"k 	c #7B9AC0",
"l 	c #7A9ABF",
"m 	c #7B9ABF",
"n 	c #7A99C0",
"o 	c #7B99C0",
"p 	c #7A99BF",
"q 	c #7B99BF",
"r 	c #7998BE",
"s 	c #7998BD",
"t 	c #7A98BE",
"u 	c #7A99BE",
"v 	c #7999BE",
"w 	c #7997BD",
"x 	c #7897BC",
"y 	c #7997BC",
"z 	c #7897BD",
"A 	c #7896BC",
"B 	c #7796BC",
"C 	c #7796BB",
"D 	c #7795BC",
"E 	c #7895BB",
"F 	c #7896BB",
"G 	c #7795BB",
"H 	c #7695BA",
"I 	c #7694BA",
"J 	c #7795BA",
"K 	c #7694BB",
"L 	c #7695BB",
"M 	c #7593B9",
"N 	c #7593B8",
"O 	c #7594B9",
"P 	c #7494B9",
"Q 	c #7492B8",
"R 	c #7493B7",
"S 	c #7392B8",
"T 	c #7492B7",
"U 	c #7392B7",
"V 	c #7493B8",
"W 	c #7391B6",
"X 	c #7291B7",
"Y 	c #7291B6",
"Z 	c #728FB5",
"` 	c #7190B4",
" .	c #7190B5",
"..	c #7290B5",
"+.	c #7290B4",
"@.	c #728FB4",
"#.	c #718FB5",
"$.	c #708EB4",
"%.	c #708EB3",
"&.	c #708FB4",
"*.	c #718FB3",
"=.	c #708FB3",
"-.	c #718EB4",
";.	c #6F8DB3",
">.	c #6F8DB2",
",.	c #6F8EB3",
"'.	c #6F8EB2",
").	c #708EB2",
"!.	c #6E8CB1",
"~.	c #6E8DB1",
"{.	c #6F8DB1",
"].	c #6D8BB0",
"^.	c #6D8BAF",
"/.	c #6D8CAF",
"(.	c #6D8CB0",
"_.	c #6C8AAE",
":.	c #6C8AAF",
"<.	c #6B8AAF",
"[.	c #6C89AE",
"}.	c #6A88AE",
"|.	c #6B89AE",
"1.	c #6A89AD",
"2.	c #6B89AD",
"3.	c #6A89AE",
"4.	c #6B88AD",
"5.	c #6A88AB",
"6.	c #6987AC",
"7.	c #6988AC",
"8.	c #6A88AC",
"9.	c #6A87AC",
"0.	c #6987AB",
"a.	c #6887AB",
"b.	c #6986AB",
"c.	c #6987AA",
"d.	c #6887AA",
"e.	c #6886AB",
"f.	c #6886AA",
"g.	c #6986AA",
"h.	c #6785A9",
"i.	c #6786A9",
"j.	c #6785AA",
"k.	c #6786AA",
"l.	c #6885A9",
"m.	c #6885AA",
". . . . . . . . . . . . . . . . . . . . . . . . . . . . ",
"+ @ @ + + + @ + + @ + + + # + $ + + + @ + + + + + + + + ",
"% & * & & % & & % % % % & % % = & - ; & % & % = & > & % ",
", - ' ) ! ~ ! ) , ! ! - { ! ! ) ' ! , ! ! { , ! , ) { , ",
"] ] ] ^ / ] ^ ( ( ^ ] ] / ( ^ ^ ] ] ( ] / ] / ( ( / / ] ",
"_ _ : < [ _ _ _ < [ _ < < } } < | < < < < < } | _ [ [ [ ",
"1 2 2 1 3 1 1 4 1 4 2 4 4 3 4 4 2 2 2 2 1 4 4 4 5 4 3 2 ",
"6 6 7 8 6 6 6 9 9 9 9 9 9 9 9 9 9 9 9 9 9 6 6 8 0 6 8 6 ",
"a b a a a a b 9 9 9 9 9 9 9 9 9 9 9 9 9 9 c b a b d a b ",
"e f f e g h i 9 9 e h h h h g j g g g 9 9 j f e e k j f ",
"l m n m m o p 9 9 m n q q k p q q p q 9 9 k l m o l q q ",
"r s s r t t t 9 9 t r r t r r u t v r 9 9 t t r t r r r ",
"w x w y z y z 9 9 w w x w w x x z w A 9 9 x w x w w w y ",
"B C C C B D D 9 9 C E F F D G C D F C 9 9 B C C B C G F ",
"H I J K H L I 9 9 H H I H H H I I H H 9 9 I H I H H H K ",
"M M M N M M N 9 9 M O O M P M M M M P 9 9 N M M M O M O ",
"Q R S Q T Q T 9 9 Q T T U T T U T T U 9 9 U T R V Q R T ",
"W X Y W W W W 9 9 W W W X W W W W W Y 9 9 X W W X Y W W ",
"Z `  . . .Z  .9 9 Z ..Z Z .. . .+. ...9 9 @. . .#. ...Z ",
"$.%.&.*.=.&.%.9 9 9 9 9 9 9 9 9 9 9 9 9 9 &.$.&.&.=.-.*.",
";.>.>.%.>.>.;.9 9 9 9 9 9 9 9 9 9 9 9 9 9 ,.,.'.).,.>.>.",
"!.!.!.~.!.!.~.!.!.~.!.~.!.!.~.~.{.!.~.!.!.!.{.~.~.!.!.!.",
"].].^.].].^./.^.].].^.].(.].].].].].].^.^.^.].].].].].].",
"_._.:.<.:.:._.<.:._.:._._._.:._._._.:._._.:._.[._.:._._.",
"}.|.1.1.2.2.2.|.1.2.2.3.2.2.1.2.|.1.2.2.1.4.1.2.1.2.1.|.",
"5.6.7.7.8.9.8.8.0.8.6.7.9.8.6.9.5.5.6.5.7.7.0.9.9.8.8.5.",
"a.0.b.b.c.a.d.e.f.0.a.0.g.a.a.f.c.f.e.f.e.c.e.e.f.c.e.a.",
"h.i.h.h.j.k.l.j.h.l.k.j.l.h.i.j.m.j.h.k.h.j.h.h.j.m.i.h."};
