/* XPM */
static char * close_unfocus_xpm[] = {
"28 28 147 2",
"  	c None",
". 	c #86A5CC",
"+ 	c #85A4CB",
"@ 	c #85A3CB",
"# 	c #84A4CB",
"$ 	c #85A4CA",
"% 	c #84A3CA",
"& 	c #84A3C9",
"* 	c #83A3CA",
"= 	c #84A2CA",
"- 	c #83A2C9",
"; 	c #83A2CA",
"> 	c #84A2C9",
", 	c #83A2C8",
"' 	c #82A1C9",
") 	c #83A1C8",
"! 	c #82A2C8",
"~ 	c #82A2C9",
"{ 	c #83A1C9",
"] 	c #82A0C7",
"^ 	c #81A1C7",
"/ 	c #81A0C7",
"( 	c #82A1C7",
"_ 	c #809FC5",
": 	c #81A0C6",
"< 	c #809FC6",
"[ 	c #80A0C6",
"} 	c #819FC6",
"| 	c #819FC5",
"1 	c #809EC4",
"2 	c #7F9EC4",
"3 	c #809EC5",
"4 	c #7F9EC5",
"5 	c #7F9FC4",
"6 	c #7E9DC3",
"7 	c #7E9CC4",
"8 	c #7E9CC3",
"9 	c #A7B8CE",
"0 	c #7F9DC3",
"a 	c #7E9DC4",
"b 	c #7D9BC2",
"c 	c #7D9CC2",
"d 	c #7C9BC1",
"e 	c #7D9CC1",
"f 	c #7D9BC1",
"g 	c #7C9AC1",
"h 	c #7C9AC0",
"i 	c #7C9BC0",
"j 	c #7B9BC0",
"k 	c #7B9AC1",
"l 	c #7B9BC1",
"m 	c #7B9AC0",
"n 	c #7A9ABF",
"o 	c #7B9ABF",
"p 	c #7A99C0",
"q 	c #7B99C0",
"r 	c #7A99BF",
"s 	c #7B99BF",
"t 	c #7998BE",
"u 	c #7998BD",
"v 	c #7A98BE",
"w 	c #7997BD",
"x 	c #7897BC",
"y 	c #7997BC",
"z 	c #7897BD",
"A 	c #7896BC",
"B 	c #7796BC",
"C 	c #7796BB",
"D 	c #7795BC",
"E 	c #7795BB",
"F 	c #7895BB",
"G 	c #7896BB",
"H 	c #7695BA",
"I 	c #7694BA",
"J 	c #7795BA",
"K 	c #7694BB",
"L 	c #7695BB",
"M 	c #7593B9",
"N 	c #7593B8",
"O 	c #7594B9",
"P 	c #7494B9",
"Q 	c #7492B8",
"R 	c #7493B7",
"S 	c #7392B8",
"T 	c #7492B7",
"U 	c #7493B8",
"V 	c #7392B7",
"W 	c #7391B6",
"X 	c #7291B7",
"Y 	c #7291B6",
"Z 	c #7391B7",
"` 	c #728FB5",
" .	c #7190B4",
"..	c #7190B5",
"+.	c #7290B5",
"@.	c #7290B4",
"#.	c #728FB4",
"$.	c #718FB5",
"%.	c #708EB4",
"&.	c #708EB3",
"*.	c #708FB4",
"=.	c #718FB3",
"-.	c #708FB3",
";.	c #718FB4",
">.	c #718EB4",
",.	c #6F8DB3",
"'.	c #6F8DB2",
").	c #6F8EB3",
"!.	c #6F8EB2",
"~.	c #708EB2",
"{.	c #708DB2",
"].	c #6E8CB1",
"^.	c #6E8DB1",
"/.	c #6F8DB1",
"(.	c #6D8BB0",
"_.	c #6D8BAF",
":.	c #6D8CAF",
"<.	c #6D8CB0",
"[.	c #6C8AAE",
"}.	c #6C8AAF",
"|.	c #6B8AAF",
"1.	c #6C89AE",
"2.	c #6A88AE",
"3.	c #6B89AE",
"4.	c #6A89AD",
"5.	c #6B89AD",
"6.	c #6A89AE",
"7.	c #6B88AD",
"8.	c #6A88AB",
"9.	c #6987AC",
"0.	c #6988AC",
"a.	c #6A88AC",
"b.	c #6A87AC",
"c.	c #6987AB",
"d.	c #6887AB",
"e.	c #6986AB",
"f.	c #6987AA",
"g.	c #6887AA",
"h.	c #6886AB",
"i.	c #6886AA",
"j.	c #6986AA",
"k.	c #6785A9",
"l.	c #6786A9",
"m.	c #6785AA",
"n.	c #6786AA",
"o.	c #6885A9",
"p.	c #6885AA",
". . . . . . . . . . . . . . . . . . . . . . . . . . . . ",
"+ @ @ + + + @ + + @ + + + # + $ + + + @ + + + + + + + + ",
"% & * & & % & & % % % % & % % = & - ; & % & % = & > & % ",
", - ' ) ! ~ ! ) , ! ! - { ! ! ) ' ! , ! ! { , ! , ) { , ",
"] ] ] ^ / ] ^ ( ( ^ ] ] / ( ^ ^ ] ] ( ] / ] / ( ( / / ] ",
"_ _ : < [ _ _ _ < [ _ < < } } < | < < < < < } | _ [ [ [ ",
"1 2 2 1 3 1 1 4 1 4 2 4 4 3 4 4 2 2 2 2 1 4 4 4 5 4 3 2 ",
"6 6 7 8 6 6 6 9 9 6 0 6 8 6 a 6 6 0 6 9 9 6 6 8 0 6 8 6 ",
"b c b b b b c 9 9 9 c c c c c c d c 9 9 9 e c b c f b c ",
"g h h g d i j g 9 9 9 i i i d k d 9 9 9 l k h g g m k h ",
"n o p o o q r s q 9 9 9 s m r s 9 9 9 s s m n o q n s s ",
"t u u t v v v t t v 9 9 9 t t 9 9 9 t v t v v t v t t t ",
"w x w y z y z w w w w 9 9 9 9 9 9 w A w z x w x w w w y ",
"B C C C B D D E C C F G 9 9 9 9 D G C C B B C C B C E G ",
"H I J K H L I I H H H I 9 9 9 9 I H H I H I H I H H H K ",
"M M M N M M N N O M O 9 9 9 9 9 9 M P N N N M M M O M O ",
"Q R S Q T Q T R U Q 9 9 9 T T 9 9 9 V T R V T R U Q R T ",
"W X Y W W W W W W 9 9 9 X W W W 9 9 9 W Z X W W X Y W W ",
"`  .......` ....9 9 9 ` ` +.....@.9 9 9 +.#.....$...+.` ",
"%.&.*.=.-.*.&.9 9 9 %.&.%.;.*.-.;.&.9 9 9 *.%.*.*.-.>.=.",
",.'.'.&.'.'.,.9 9 ).).,.).).!.~.{.!.'.9 9 ).).!.~.).'.'.",
"].].].^.].].^.].].^.].^.].].^.^./.].^.].].]./.^.^.].].].",
"(.(._.(.(._.:._.(.(._.(.<.(.(.(.(.(.(._._._.(.(.(.(.(.(.",
"[.[.}.|.}.}.[.|.}.[.}.[.[.[.}.[.[.[.}.[.[.}.[.1.[.}.[.[.",
"2.3.4.4.5.5.5.3.4.5.5.6.5.5.4.5.3.4.5.5.4.7.4.5.4.5.4.3.",
"8.9.0.0.a.b.a.a.c.a.9.0.b.a.9.b.8.8.9.8.0.0.c.b.b.a.a.8.",
"d.c.e.e.f.d.g.h.i.c.d.c.j.d.d.i.f.i.h.i.h.f.h.h.i.f.h.d.",
"k.l.k.k.m.n.o.m.k.o.n.m.o.k.l.m.p.m.k.n.k.m.k.k.m.p.l.k."};
