/* XPM */
static char * max_pressed_xpm[] = {
"28 28 94 2",
"  	c None",
". 	c #0060D6",
"+ 	c #005FD2",
"@ 	c #005ED2",
"# 	c #005CCE",
"$ 	c #005DCE",
"% 	c #005BCB",
"& 	c #005BCA",
"* 	c #005ACA",
"= 	c #005ACB",
"- 	c #0059C6",
"; 	c #0059C7",
"> 	c #0058C6",
", 	c #0057C2",
"' 	c #0058C2",
") 	c #0057C3",
"! 	c #0056BE",
"~ 	c #0055BE",
"{ 	c #0055BF",
"] 	c #0056BF",
"^ 	c #0054BB",
"/ 	c #0054BA",
"( 	c #0053BB",
"_ 	c #FFFFFF",
": 	c #0053BA",
"< 	c #0052B7",
"[ 	c #0051B7",
"} 	c #0052B6",
"| 	c #0051B6",
"1 	c #0050B3",
"2 	c #0051B3",
"3 	c #0050B2",
"4 	c #0051B2",
"5 	c #004FAE",
"6 	c #004EAE",
"7 	c #004FAF",
"8 	c #004EAF",
"9 	c #004DAA",
"0 	c #004DAB",
"a 	c #004CAA",
"b 	c #004CAB",
"c 	c #004BA6",
"d 	c #004BA7",
"e 	c #004AA6",
"f 	c #0049A3",
"g 	c #0049A2",
"h 	c #00479F",
"i 	c #00479E",
"j 	c #00489F",
"k 	c #00489E",
"l 	c #00469A",
"m 	c #00459A",
"n 	c #00469B",
"o 	c #00459B",
"p 	c #004496",
"q 	c #004497",
"r 	c #004397",
"s 	c #004396",
"t 	c #004293",
"u 	c #004292",
"v 	c #004193",
"w 	c #00408F",
"x 	c #00418F",
"y 	c #00408E",
"z 	c #003F8B",
"A 	c #003E8A",
"B 	c #003E8B",
"C 	c #003F8A",
"D 	c #003D86",
"E 	c #003D87",
"F 	c #003C87",
"G 	c #003B82",
"H 	c #003B83",
"I 	c #003A83",
"J 	c #00397E",
"K 	c #003A7F",
"L 	c #00397F",
"M 	c #003A7E",
"N 	c #00377B",
"O 	c #00387B",
"P 	c #00377A",
"Q 	c #003577",
"R 	c #003677",
"S 	c #003676",
"T 	c #003576",
"U 	c #003473",
"V 	c #003472",
"W 	c #003373",
"X 	c #00326E",
"Y 	c #00326F",
"Z 	c #00336F",
"` 	c #00316B",
" .	c #00306B",
"..	c #00306A",
". . . . . . . . . . . . . . . . . . . . . . . . . . . . ",
"+ @ + @ @ + @ @ @ @ @ @ @ @ @ @ @ @ + @ + @ @ @ @ @ + @ ",
"# # # $ $ $ # # $ # # # $ # $ # $ $ # # # # # # $ # $ $ ",
"% & & & * * & * & & * = & = & & & = * & * & & & & & * & ",
"- - ; - - > - ; - ; ; - > - - - - ; - - - ; ; ; - - - - ",
", , , ' , ' ) , , , , , ' , , , ) , ) ' , ' , ' , ) , ' ",
"! ! ~ ! ~ ~ { ! { ! ~ ~ ~ ] ~ ! { ~ { ! ~ ! ~ ! ~ ~ ~ ~ ",
"^ / ( / ( / / _ _ _ _ _ _ _ _ _ _ _ _ _ _ / / / / : ^ ^ ",
"< [ } } } | } _ _ _ _ _ _ _ _ _ _ _ _ _ _ } | } } } } } ",
"1 1 2 1 3 4 1 _ _ _ _ _ _ _ _ _ _ _ _ _ _ 1 3 1 1 3 1 3 ",
"5 6 6 6 6 7 6 _ _ _ _ _ _ _ _ _ _ _ _ _ _ 8 6 8 5 6 8 6 ",
"9 0 9 0 a 9 0 _ _ _ _ _ _ _ _ _ _ _ _ _ _ 9 a 9 9 9 0 b ",
"c c d d d d d _ _ _ _ _ _ _ _ _ _ _ _ _ _ d e d c d c d ",
"f f f g g g g _ _ f g g f f g f g f g _ _ g f g f f g f ",
"h h h i h j i _ _ h h k i h h k i h j _ _ i i i h i h i ",
"l m m n n o o _ _ n n n n o o l m o o _ _ m l m n l o l ",
"p q q q p r q _ _ r s q q p r q q p p _ _ p p p p q q q ",
"t t u t t t u _ _ t u u t u u t u t u _ _ t u t u t t v ",
"w w x x w w x _ _ w x w w w y y w w y _ _ x x x w x w y ",
"z A A z z z z _ _ _ _ _ _ _ _ _ _ _ _ _ _ B z B z C B z ",
"D E E F E F E _ _ _ _ _ _ _ _ _ _ _ _ _ _ D E D E E D E ",
"G H H H H H H H G H I H G H H H H H H G H H H H H H H H ",
"J K J L J L J L L J K L L J L L L M K L L L J L L L L J ",
"N O N N N N O O N P N O P N N O O O P P P N N N N P O P ",
"Q R Q Q Q R R Q R Q R R R R S Q R R Q Q Q Q T Q R T Q Q ",
"U V U U U U U U U U W W W U U U U U U U U V U V U U U W ",
"X Y Y Y Y Y Y Y Y X Z Z Y Y Y Y X X Y Z Z Z X Z Z Y Y Z ",
"`  . . . . . . . . . . . . . .`  . . . . . .`  . . ... ."};
