/* XPM */
static char * max_unfocus_xpm[] = {
"28 28 141 2",
"  	c None",
". 	c #86A5CC",
"+ 	c #85A4CB",
"@ 	c #85A3CB",
"# 	c #84A4CB",
"$ 	c #85A4CA",
"% 	c #84A3CA",
"& 	c #84A3C9",
"* 	c #83A3CA",
"= 	c #84A2CA",
"- 	c #83A2C9",
"; 	c #83A2CA",
"> 	c #84A2C9",
", 	c #83A2C8",
"' 	c #82A1C9",
") 	c #83A1C8",
"! 	c #82A2C8",
"~ 	c #82A2C9",
"{ 	c #83A1C9",
"] 	c #82A0C7",
"^ 	c #81A1C7",
"/ 	c #81A0C7",
"( 	c #82A1C7",
"_ 	c #809FC5",
": 	c #81A0C6",
"< 	c #809FC6",
"[ 	c #80A0C6",
"} 	c #819FC6",
"| 	c #819FC5",
"1 	c #809EC4",
"2 	c #7F9EC4",
"3 	c #809EC5",
"4 	c #7F9EC5",
"5 	c #7F9FC4",
"6 	c #7E9DC3",
"7 	c #7E9CC4",
"8 	c #7E9CC3",
"9 	c #A7B8CE",
"0 	c #7F9DC3",
"a 	c #7D9BC2",
"b 	c #7D9CC2",
"c 	c #7D9CC1",
"d 	c #7D9BC1",
"e 	c #7C9AC1",
"f 	c #7C9AC0",
"g 	c #7C9BC1",
"h 	c #7C9BC0",
"i 	c #7B9BC0",
"j 	c #7B9AC1",
"k 	c #7B9AC0",
"l 	c #7A9ABF",
"m 	c #7B9ABF",
"n 	c #7A99C0",
"o 	c #7B99C0",
"p 	c #7A99BF",
"q 	c #7B99BF",
"r 	c #7998BE",
"s 	c #7998BD",
"t 	c #7A98BE",
"u 	c #7997BD",
"v 	c #7897BC",
"w 	c #7997BC",
"x 	c #7897BD",
"y 	c #7796BC",
"z 	c #7796BB",
"A 	c #7795BC",
"B 	c #7895BB",
"C 	c #7896BB",
"D 	c #7795BB",
"E 	c #7695BA",
"F 	c #7694BA",
"G 	c #7795BA",
"H 	c #7694BB",
"I 	c #7695BB",
"J 	c #7593B9",
"K 	c #7593B8",
"L 	c #7594B9",
"M 	c #7494B9",
"N 	c #7492B8",
"O 	c #7493B7",
"P 	c #7392B8",
"Q 	c #7492B7",
"R 	c #7392B7",
"S 	c #7493B8",
"T 	c #7391B6",
"U 	c #7291B7",
"V 	c #7291B6",
"W 	c #728FB5",
"X 	c #7190B4",
"Y 	c #7190B5",
"Z 	c #7290B5",
"` 	c #7290B4",
" .	c #728FB4",
"..	c #718FB5",
"+.	c #708EB4",
"@.	c #708EB3",
"#.	c #708FB4",
"$.	c #718FB3",
"%.	c #708FB3",
"&.	c #718EB4",
"*.	c #6F8DB3",
"=.	c #6F8DB2",
"-.	c #6F8EB3",
";.	c #6F8EB2",
">.	c #708EB2",
",.	c #6E8CB1",
"'.	c #6E8DB1",
").	c #6F8DB1",
"!.	c #6D8BB0",
"~.	c #6D8BAF",
"{.	c #6D8CAF",
"].	c #6D8CB0",
"^.	c #6C8AAE",
"/.	c #6C8AAF",
"(.	c #6B8AAF",
"_.	c #6C89AE",
":.	c #6A88AE",
"<.	c #6B89AE",
"[.	c #6A89AD",
"}.	c #6B89AD",
"|.	c #6A89AE",
"1.	c #6B88AD",
"2.	c #6A88AB",
"3.	c #6987AC",
"4.	c #6988AC",
"5.	c #6A88AC",
"6.	c #6A87AC",
"7.	c #6987AB",
"8.	c #6887AB",
"9.	c #6986AB",
"0.	c #6987AA",
"a.	c #6887AA",
"b.	c #6886AB",
"c.	c #6886AA",
"d.	c #6986AA",
"e.	c #6785A9",
"f.	c #6786A9",
"g.	c #6785AA",
"h.	c #6786AA",
"i.	c #6885A9",
"j.	c #6885AA",
". . . . . . . . . . . . . . . . . . . . . . . . . . . . ",
"+ @ @ + + + @ + + @ + + + # + $ + + + @ + + + + + + + + ",
"% & * & & % & & % % % % & % % = & - ; & % & % = & > & % ",
", - ' ) ! ~ ! ) , ! ! - { ! ! ) ' ! , ! ! { , ! , ) { , ",
"] ] ] ^ / ] ^ ( ( ^ ] ] / ( ^ ^ ] ] ( ] / ] / ( ( / / ] ",
"_ _ : < [ _ _ _ < [ _ < < } } < | < < < < < } | _ [ [ [ ",
"1 2 2 1 3 1 1 4 1 4 2 4 4 3 4 4 2 2 2 2 1 4 4 4 5 4 3 2 ",
"6 6 7 8 6 6 6 9 9 9 9 9 9 9 9 9 9 9 9 9 9 6 6 8 0 6 8 6 ",
"a b a a a a b 9 9 9 9 9 9 9 9 9 9 9 9 9 9 c b a b d a b ",
"e f f e g h i 9 9 9 9 9 9 9 9 9 9 9 9 9 9 j f e e k j f ",
"l m n m m o p 9 9 9 9 9 9 9 9 9 9 9 9 9 9 k l m o l q q ",
"r s s r t t t 9 9 9 9 9 9 9 9 9 9 9 9 9 9 t t r t r r r ",
"u v u w x w x 9 9 9 9 9 9 9 9 9 9 9 9 9 9 v u v u u u w ",
"y z z z y A A 9 9 z B C C A D z A C z 9 9 y z z y z D C ",
"E F G H E I F 9 9 E E F E E E F F E E 9 9 F E F E E E H ",
"J J J K J J K 9 9 J L L J M J J J J M 9 9 K J J J L J L ",
"N O P N Q N Q 9 9 N Q Q R Q Q R Q Q R 9 9 R Q O S N O Q ",
"T U V T T T T 9 9 T T T U T T T T T V 9 9 U T T U V T T ",
"W X Y Y Y W Y 9 9 W Z W W Z Y Y ` Y Z 9 9  .Y Y ..Y Z W ",
"+.@.#.$.%.#.@.9 9 9 9 9 9 9 9 9 9 9 9 9 9 #.+.#.#.%.&.$.",
"*.=.=.@.=.=.*.9 9 9 9 9 9 9 9 9 9 9 9 9 9 -.-.;.>.-.=.=.",
",.,.,.'.,.,.'.,.,.'.,.'.,.,.'.'.).,.'.,.,.,.).'.'.,.,.,.",
"!.!.~.!.!.~.{.~.!.!.~.!.].!.!.!.!.!.!.~.~.~.!.!.!.!.!.!.",
"^.^./.(././.^.(./.^./.^.^.^./.^.^.^./.^.^./.^._.^./.^.^.",
":.<.[.[.}.}.}.<.[.}.}.|.}.}.[.}.<.[.}.}.[.1.[.}.[.}.[.<.",
"2.3.4.4.5.6.5.5.7.5.3.4.6.5.3.6.2.2.3.2.4.4.7.6.6.5.5.2.",
"8.7.9.9.0.8.a.b.c.7.8.7.d.8.8.c.0.c.b.c.b.0.b.b.c.0.b.8.",
"e.f.e.e.g.h.i.g.e.i.h.g.i.e.f.g.j.g.e.h.e.g.e.e.g.j.f.e."};
