/* XPM */
static char * max_xpm[] = {
"28 28 96 2",
"  	c None",
". 	c #024DA7",
"+ 	c #024DAA",
"@ 	c #024DA9",
"# 	c #034DA9",
"$ 	c #024DAC",
"% 	c #034DAC",
"& 	c #034DAF",
"* 	c #034DAE",
"= 	c #024DAF",
"- 	c #034DB1",
"; 	c #044DB1",
"> 	c #044DB2",
", 	c #034DB2",
"' 	c #044DB4",
") 	c #034DB4",
"! 	c #034DB3",
"~ 	c #044DB3",
"{ 	c #044DB7",
"] 	c #044DB6",
"^ 	c #034DB7",
"/ 	c #034DB6",
"( 	c #054DB9",
"_ 	c #044DB9",
": 	c #84D6FF",
"< 	c #054DBC",
"[ 	c #044DBC",
"} 	c #054DBE",
"| 	c #044DBE",
"1 	c #054DBF",
"2 	c #044DBF",
"3 	c #054DC1",
"4 	c #054DC2",
"5 	c #064DC1",
"6 	c #064DC4",
"7 	c #054DC4",
"8 	c #064DC7",
"9 	c #064DC6",
"0 	c #054DC6",
"a 	c #054DC7",
"b 	c #074DCA",
"c 	c #074DC9",
"d 	c #064DCA",
"e 	c #064DC9",
"f 	c #074DCC",
"g 	c #064DCB",
"h 	c #064DCC",
"i 	c #074DCB",
"j 	c #074DCE",
"k 	c #074DCF",
"l 	c #064DCE",
"m 	c #064DCF",
"n 	c #084DD2",
"o 	c #074DD1",
"p 	c #084DD1",
"q 	c #074DD2",
"r 	c #074DD4",
"s 	c #084DD4",
"t 	c #084DD3",
"u 	c #074DD3",
"v 	c #084DD6",
"w 	c #084DD7",
"x 	c #074DD6",
"y 	c #074DD7",
"z 	c #084DD9",
"A 	c #094DD9",
"B 	c #084DDA",
"C 	c #084DDC",
"D 	c #094DDC",
"E 	c #094DDB",
"F 	c #084DDB",
"G 	c #094DDF",
"H 	c #094DDE",
"I 	c #084DDE",
"J 	c #084DDF",
"K 	c #094DE1",
"L 	c #0A4DE1",
"M 	c #0A4DE2",
"N 	c #094DE4",
"O 	c #0A4DE3",
"P 	c #094DE3",
"Q 	c #0A4DE4",
"R 	c #094DE6",
"S 	c #0A4DE6",
"T 	c #0A4DE7",
"U 	c #0A4DE9",
"V 	c #0B4DE9",
"W 	c #0A4DEA",
"X 	c #0A4DEB",
"Y 	c #0A4DEC",
"Z 	c #0B4DEB",
"` 	c #0B4DEC",
" .	c #0B4DEE",
"..	c #0A4DEE",
"+.	c #0B4DEF",
"@.	c #0A4DEF",
". . . . . . . . . . . . . . . . . . . . . . . . . . . . ",
"+ @ @ + + + @ @ @ @ # @ @ # # @ + + # # @ # + @ @ + + @ ",
"$ $ % % $ % $ % % % $ % % % $ % $ % $ % % $ % % $ $ $ % ",
"& * * * & * & & & * & * * * * * * * & & & & * * * & * = ",
"- - - ; - - > , - - - ; - , ; - - ; ; - - - , - ; - - - ",
"' ' ' ' ) ' ! ' ' ' ) ) ' ' ~ ~ ' ) ' ) ' ~ ) ' ' ' ' ' ",
"{ { { { ] { ] ] { { ] ] ] ^ { ] { / ] ] { ] ] { { { { ] ",
"( _ ( _ _ _ ( : : : : : : : : : : : : : : _ _ ( _ _ _ _ ",
"< < [ [ < [ < : : : : : : : : : : : : : : < < < < < [ < ",
"} | 1 } 1 } 1 : : : : : : : : : : : : : : } 1 } 2 } } 2 ",
"3 3 3 3 3 4 3 : : : : : : : : : : : : : : 3 3 3 5 3 3 5 ",
"6 7 6 6 6 6 6 : : : : : : : : : : : : : : 7 6 6 6 7 7 6 ",
"8 8 9 9 8 0 9 : : : : : : : : : : : : : : 8 9 9 8 a 8 0 ",
"b b c d e c e : : e e e d b e e e e e : : d d e d c e e ",
"f g g h f f h : : f i f f f f f h f f : : g f f f h h h ",
"j j j j j k l : : k j k j j l m j k k : : j j j j k k l ",
"n o p o p o o : : o o o o o q o o p o : : q o o o o o o ",
"r s t r r s r : : r s r s s r s t u r : : t s r s r t r ",
"v w v w v v v : : w x v v y v w v x w : : v x w w y w v ",
"z z z z z z A : : : : : : : : : : : : : : z A B z z z z ",
"C D E C C C C : : : : : : : : : : : : : : C D C C F C C ",
"G G H H H G I G G H H H J H G H H H H G I G J H J H G H ",
"K K K K K K K K K K K K K K L K K K K K M K K K K K K K ",
"N O N N P Q N N P N Q P N N O N P O N Q Q Q Q O N N N N ",
"R S T T S S S S T T S T S R T S T S S S T S T T R S S R ",
"U U U V U W V V U W U U U U U U U U U U U U U U U U U U ",
"X X Y Y Z Y Y Y Y Y X Z ` ` ` X X Y Y X X Y ` X Y X ` Z ",
" . ... ... ... .+.+. . .@. .@.+. .+... . .@... .+......."};
