/* XPM */
static char * min_unfocus_xpm[] = {
"28 28 146 2",
"  	c None",
". 	c #86A5CC",
"+ 	c #85A4CB",
"@ 	c #85A3CB",
"# 	c #84A4CB",
"$ 	c #85A4CA",
"% 	c #84A3CA",
"& 	c #84A3C9",
"* 	c #83A3CA",
"= 	c #84A2CA",
"- 	c #83A2C9",
"; 	c #83A2CA",
"> 	c #84A2C9",
", 	c #83A2C8",
"' 	c #82A1C9",
") 	c #83A1C8",
"! 	c #82A2C8",
"~ 	c #82A2C9",
"{ 	c #83A1C9",
"] 	c #82A0C7",
"^ 	c #81A1C7",
"/ 	c #81A0C7",
"( 	c #82A1C7",
"_ 	c #809FC5",
": 	c #81A0C6",
"< 	c #809FC6",
"[ 	c #80A0C6",
"} 	c #819FC6",
"| 	c #819FC5",
"1 	c #809EC4",
"2 	c #7F9EC4",
"3 	c #809EC5",
"4 	c #7F9EC5",
"5 	c #7F9FC4",
"6 	c #7E9DC3",
"7 	c #7E9CC4",
"8 	c #7E9CC3",
"9 	c #7F9DC3",
"0 	c #7E9DC4",
"a 	c #7D9BC2",
"b 	c #7D9CC2",
"c 	c #7D9BC1",
"d 	c #7C9BC1",
"e 	c #7D9CC1",
"f 	c #7C9AC1",
"g 	c #7C9AC0",
"h 	c #7C9BC0",
"i 	c #7B9BC0",
"j 	c #7B9BC1",
"k 	c #7B9AC1",
"l 	c #7B9AC0",
"m 	c #7A9ABF",
"n 	c #7B9ABF",
"o 	c #7A99C0",
"p 	c #7B99C0",
"q 	c #7A99BF",
"r 	c #7B99BF",
"s 	c #7998BE",
"t 	c #7998BD",
"u 	c #7A98BE",
"v 	c #7A99BE",
"w 	c #7999BE",
"x 	c #7997BD",
"y 	c #7897BC",
"z 	c #7997BC",
"A 	c #7897BD",
"B 	c #A7B8CE",
"C 	c #7796BC",
"D 	c #7796BB",
"E 	c #7795BC",
"F 	c #7795BB",
"G 	c #7896BB",
"H 	c #7695BA",
"I 	c #7694BA",
"J 	c #7795BA",
"K 	c #7694BB",
"L 	c #7695BB",
"M 	c #7593B9",
"N 	c #7593B8",
"O 	c #7594B9",
"P 	c #7492B8",
"Q 	c #7493B7",
"R 	c #7392B8",
"S 	c #7492B7",
"T 	c #7493B8",
"U 	c #7392B7",
"V 	c #7391B6",
"W 	c #7291B7",
"X 	c #7291B6",
"Y 	c #7391B7",
"Z 	c #728FB5",
"` 	c #7190B4",
" .	c #7190B5",
"..	c #7290B5",
"+.	c #7290B4",
"@.	c #728FB4",
"#.	c #718FB5",
"$.	c #708EB4",
"%.	c #708EB3",
"&.	c #708FB4",
"*.	c #718FB3",
"=.	c #708FB3",
"-.	c #718EB4",
";.	c #718FB4",
">.	c #6F8DB3",
",.	c #6F8DB2",
"'.	c #6F8EB3",
").	c #6F8EB2",
"!.	c #708EB2",
"~.	c #708DB2",
"{.	c #6E8CB1",
"].	c #6E8DB1",
"^.	c #6F8DB1",
"/.	c #6D8BB0",
"(.	c #6D8BAF",
"_.	c #6D8CAF",
":.	c #6D8CB0",
"<.	c #6C8AAE",
"[.	c #6C8AAF",
"}.	c #6B8AAF",
"|.	c #6C89AE",
"1.	c #6A88AE",
"2.	c #6B89AE",
"3.	c #6A89AD",
"4.	c #6B89AD",
"5.	c #6A89AE",
"6.	c #6B88AD",
"7.	c #6A88AB",
"8.	c #6987AC",
"9.	c #6988AC",
"0.	c #6A88AC",
"a.	c #6A87AC",
"b.	c #6987AB",
"c.	c #6887AB",
"d.	c #6986AB",
"e.	c #6987AA",
"f.	c #6887AA",
"g.	c #6886AB",
"h.	c #6886AA",
"i.	c #6986AA",
"j.	c #6785A9",
"k.	c #6786A9",
"l.	c #6785AA",
"m.	c #6786AA",
"n.	c #6885A9",
"o.	c #6885AA",
". . . . . . . . . . . . . . . . . . . . . . . . . . . . ",
"+ @ @ + + + @ + + @ + + + # + $ + + + @ + + + + + + + + ",
"% & * & & % & & % % % % & % % = & - ; & % & % = & > & % ",
", - ' ) ! ~ ! ) , ! ! - { ! ! ) ' ! , ! ! { , ! , ) { , ",
"] ] ] ^ / ] ^ ( ( ^ ] ] / ( ^ ^ ] ] ( ] / ] / ( ( / / ] ",
"_ _ : < [ _ _ _ < [ _ < < } } < | < < < < < } | _ [ [ [ ",
"1 2 2 1 3 1 1 4 1 4 2 4 4 3 4 4 2 2 2 2 1 4 4 4 5 4 3 2 ",
"6 6 7 8 6 6 6 6 6 6 9 6 8 6 0 6 6 9 6 9 6 6 6 8 9 6 8 6 ",
"a b a a a a b b b c b b b b b b d b b b b e b a b c a b ",
"f g g f d h i f j f h h h h d k d d d d j k g f f l k g ",
"m n o n n p q r p n o r r l q r r q r r r l m n p m r r ",
"s t t s u u u s s u s s u s s v u w s u s u u s u s s s ",
"x y x z A z A B B B B B B B B B B B B B B y x y x x x z ",
"C D D D C E E B B B B B B B B B B B B B B C D D C D F G ",
"H I J K H L I B B B B B B B B B B B B B B I H I H H H K ",
"M M M N M M N B B B B B B B B B B B B B B N M M M O M O ",
"P Q R P S P S Q T P S S U S S U S S U S Q U S Q T P Q S ",
"V W X V V V V V V V V V W V V V V V X V Y W V V W X V V ",
"Z `  . . .Z  . . .Z ..Z Z .. . .+. ... ...@. . .#. ...Z ",
"$.%.&.*.=.&.%.=.=.-.$.%.$.;.&.=.;.%.=.;.=.&.$.&.&.=.-.*.",
">.,.,.%.,.,.>.'.,.'.'.>.'.'.).!.~.).,.,.).'.'.).!.'.,.,.",
"{.{.{.].{.{.].{.{.].{.].{.{.].].^.{.].{.{.{.^.].].{.{.{.",
"/./.(././.(._.(././.(./.:././././././.(.(.(././././././.",
"<.<.[.}.[.[.<.}.[.<.[.<.<.<.[.<.<.<.[.<.<.[.<.|.<.[.<.<.",
"1.2.3.3.4.4.4.2.3.4.4.5.4.4.3.4.2.3.4.4.3.6.3.4.3.4.3.2.",
"7.8.9.9.0.a.0.0.b.0.8.9.a.0.8.a.7.7.8.7.9.9.b.a.a.0.0.7.",
"c.b.d.d.e.c.f.g.h.b.c.b.i.c.c.h.e.h.g.h.g.e.g.g.h.e.g.c.",
"j.k.j.j.l.m.n.l.j.n.m.l.n.j.k.l.o.l.j.m.j.l.j.j.l.o.k.j."};
