/* XPM */
static char * min_xpm[] = {
"28 28 97 2",
"  	c None",
". 	c #024DA7",
"+ 	c #024DAA",
"@ 	c #024DA9",
"# 	c #034DA9",
"$ 	c #024DAC",
"% 	c #034DAC",
"& 	c #034DAF",
"* 	c #034DAE",
"= 	c #024DAF",
"- 	c #034DB1",
"; 	c #044DB1",
"> 	c #044DB2",
", 	c #034DB2",
"' 	c #044DB4",
") 	c #034DB4",
"! 	c #034DB3",
"~ 	c #044DB3",
"{ 	c #044DB7",
"] 	c #044DB6",
"^ 	c #034DB7",
"/ 	c #034DB6",
"( 	c #054DB9",
"_ 	c #044DB9",
": 	c #044DBA",
"< 	c #054DBC",
"[ 	c #044DBC",
"} 	c #054DBB",
"| 	c #054DBE",
"1 	c #044DBE",
"2 	c #054DBF",
"3 	c #044DBF",
"4 	c #054DC1",
"5 	c #054DC2",
"6 	c #064DC1",
"7 	c #064DC4",
"8 	c #054DC4",
"9 	c #064DC3",
"0 	c #064DC7",
"a 	c #064DC6",
"b 	c #054DC6",
"c 	c #84D6FF",
"d 	c #054DC7",
"e 	c #074DCA",
"f 	c #074DC9",
"g 	c #064DCA",
"h 	c #064DC9",
"i 	c #074DCC",
"j 	c #064DCB",
"k 	c #064DCC",
"l 	c #074DCE",
"m 	c #074DCF",
"n 	c #064DCE",
"o 	c #084DD2",
"p 	c #074DD1",
"q 	c #084DD1",
"r 	c #074DD2",
"s 	c #074DD4",
"t 	c #084DD4",
"u 	c #084DD3",
"v 	c #074DD3",
"w 	c #084DD6",
"x 	c #084DD7",
"y 	c #074DD7",
"z 	c #074DD6",
"A 	c #084DD9",
"B 	c #094DD9",
"C 	c #084DDA",
"D 	c #084DDC",
"E 	c #094DDC",
"F 	c #094DDB",
"G 	c #084DDB",
"H 	c #094DDF",
"I 	c #094DDE",
"J 	c #084DDE",
"K 	c #084DDF",
"L 	c #094DE1",
"M 	c #0A4DE1",
"N 	c #0A4DE2",
"O 	c #094DE4",
"P 	c #0A4DE3",
"Q 	c #094DE3",
"R 	c #0A4DE4",
"S 	c #094DE6",
"T 	c #0A4DE6",
"U 	c #0A4DE7",
"V 	c #0A4DE9",
"W 	c #0B4DE9",
"X 	c #0A4DEA",
"Y 	c #0A4DEB",
"Z 	c #0A4DEC",
"` 	c #0B4DEB",
" .	c #0B4DEC",
"..	c #0B4DEE",
"+.	c #0A4DEE",
"@.	c #0B4DEF",
"#.	c #0A4DEF",
". . . . . . . . . . . . . . . . . . . . . . . . . . . . ",
"+ @ @ + + + @ @ @ @ # @ @ # # @ + + # # @ # + @ @ + + @ ",
"$ $ % % $ % $ % % % $ % % % $ % $ % $ % % $ % % $ $ $ % ",
"& * * * & * & & & * & * * * * * * * & & & & * * * & * = ",
"- - - ; - - > , - - - ; - , ; - - ; ; - - - , - ; - - - ",
"' ' ' ' ) ' ! ' ' ' ) ) ' ' ~ ~ ' ) ' ) ' ~ ) ' ' ' ' ' ",
"{ { { { ] { ] ] { { ] ] ] ^ { ] { / ] ] { ] ] { { { { ] ",
"( _ ( _ _ _ ( ( _ _ _ _ _ ( ( _ : : _ : : _ _ ( _ _ _ _ ",
"< < [ [ < [ < < < [ < < [ [ } [ < < < < < < < < < < [ < ",
"| 1 2 | 2 | 2 2 2 | 2 | 2 | 1 2 2 | 2 | 2 | 2 | 3 | | 3 ",
"4 4 4 4 4 5 4 4 4 5 4 5 4 5 4 4 5 4 5 5 4 4 4 4 6 4 4 6 ",
"7 8 7 7 7 7 7 9 7 7 8 8 8 9 8 7 8 7 8 8 8 8 7 7 7 8 8 7 ",
"0 0 a a 0 b a c c c c c c c c c c c c c c 0 a a 0 d 0 b ",
"e e f g h f h c c c c c c c c c c c c c c g g h g f h h ",
"i j j k i i k c c c c c c c c c c c c c c j i i i k k k ",
"l l l l l m n c c c c c c c c c c c c c c l l l l m m n ",
"o p q p q p p p p p p p p p r p p q p p p r p p p p p p ",
"s t u s s t s s s s t s t t s t u v s s s u t s t s u s ",
"w x w x w w w y w x z w w y w x w z x y w w z x x y x w ",
"A A A A A A B A B A A A A A A C A A A A A A B C A A A A ",
"D E F D D D D D E G F E D D E G D E D G E D E D D G D D ",
"H H I I I H J H H I I I K I H I I I I H J H K I K I H I ",
"L L L L L L L L L L L L L L M L L L L L N L L L L L L L ",
"O P O O Q R O O Q O R Q O O P O Q P O R R R R P O O O O ",
"S T U U T T T T U U T U T S U T U T T T U T U U S T T S ",
"V V V W V X W W V X V V V V V V V V V V V V V V V V V V ",
"Y Y Z Z ` Z Z Z Z Z Y `  . . .Y Y Z Z Y Y Z  .Y Z Y  .` ",
"....+...+...+...@.@.....#...#.@...@.+.....#.+...@.+.+.+."};
