/* XPM */
static char * stick_pressed_xpm[] = {
"28 28 95 2",
"  	c None",
". 	c #0060D6",
"+ 	c #005FD2",
"@ 	c #005ED2",
"# 	c #005CCE",
"$ 	c #005DCE",
"% 	c #005BCB",
"& 	c #005BCA",
"* 	c #005ACA",
"= 	c #005ACB",
"- 	c #0059C6",
"; 	c #0059C7",
"> 	c #0058C6",
", 	c #0057C2",
"' 	c #0058C2",
") 	c #0057C3",
"! 	c #0056BE",
"~ 	c #0055BE",
"{ 	c #0055BF",
"] 	c #0056BF",
"^ 	c #0054BB",
"/ 	c #0054BA",
"( 	c #0053BB",
"_ 	c #FFFFFF",
": 	c #0053BA",
"< 	c #0052B7",
"[ 	c #0051B7",
"} 	c #0052B6",
"| 	c #0051B6",
"1 	c #0050B3",
"2 	c #0051B3",
"3 	c #0050B2",
"4 	c #0051B2",
"5 	c #004FAE",
"6 	c #004EAE",
"7 	c #004FAF",
"8 	c #004EAF",
"9 	c #004DAA",
"0 	c #004DAB",
"a 	c #004CAA",
"b 	c #004CAB",
"c 	c #004BA6",
"d 	c #004BA7",
"e 	c #004AA7",
"f 	c #004AA6",
"g 	c #0049A3",
"h 	c #0049A2",
"i 	c #00479F",
"j 	c #00479E",
"k 	c #00489F",
"l 	c #00489E",
"m 	c #00469A",
"n 	c #00459A",
"o 	c #00469B",
"p 	c #00459B",
"q 	c #004496",
"r 	c #004497",
"s 	c #004397",
"t 	c #004396",
"u 	c #004293",
"v 	c #004292",
"w 	c #004193",
"x 	c #00408F",
"y 	c #00418F",
"z 	c #00408E",
"A 	c #003F8B",
"B 	c #003E8A",
"C 	c #003E8B",
"D 	c #003F8A",
"E 	c #003D86",
"F 	c #003D87",
"G 	c #003C87",
"H 	c #003B82",
"I 	c #003B83",
"J 	c #003A83",
"K 	c #00397E",
"L 	c #003A7F",
"M 	c #00397F",
"N 	c #003A7E",
"O 	c #00377B",
"P 	c #00387B",
"Q 	c #00377A",
"R 	c #003577",
"S 	c #003677",
"T 	c #003676",
"U 	c #003576",
"V 	c #003473",
"W 	c #003472",
"X 	c #003373",
"Y 	c #00326E",
"Z 	c #00326F",
"` 	c #00336F",
" .	c #00316B",
"..	c #00306B",
"+.	c #00306A",
". . . . . . . . . . . . . . . . . . . . . . . . . . . . ",
"+ @ + @ @ + @ @ @ @ @ @ @ @ @ @ @ @ + @ + @ @ @ @ @ + @ ",
"# # # $ $ $ # # $ # # # $ # $ # $ $ # # # $ # # $ # $ $ ",
"% & & & * * & * & & * = & = & & & = * & * & & & & & * & ",
"- - ; - - > - ; - ; ; - > - - - - ; - - - - ; ; - - - - ",
", , , ' , ' ) , , , , , ' , , , ) , ) ' , ) , ' , ) , ' ",
"! ! ~ ! ~ ~ { ! { ! ~ ~ ~ ] ~ ! { ~ { ! ~ ~ ~ ! ~ ~ ~ ~ ",
"^ / ( / ( / / _ _ _ _ _ _ _ _ _ _ _ _ _ _ / / / / : ^ ^ ",
"< [ } } } | } _ _ _ _ _ _ _ _ _ _ _ _ _ _ } | } } } } } ",
"1 1 2 1 3 4 1 _ _ _ 1 1 3 3 4 3 1 3 _ _ _ 1 3 1 1 3 1 3 ",
"5 6 6 6 6 7 6 _ _ 6 _ 6 7 8 7 6 6 _ 6 _ _ 6 6 8 5 6 8 6 ",
"9 0 9 0 a 9 0 _ _ 0 0 _ b b 9 9 _ 9 9 _ _ b a 9 9 9 0 b ",
"c c d d d d d _ _ d d e _ _ _ _ f c c _ _ c f d c d c d ",
"g g g h h h h _ _ g h h _ _ _ _ h g h _ _ g g h g g h g ",
"i i i j i k j _ _ i i l _ _ _ _ j i k _ _ j j j i j i j ",
"m n n o o p p _ _ o o o _ _ _ _ n p p _ _ o m n o m p m ",
"q r r r q s r _ _ s t _ r q s r _ q q _ _ q q q q r r r ",
"u u v u u u v _ _ u _ v u v v u v _ v _ _ u v u v u u w ",
"x x y y x x y _ _ _ y x x x z z x x _ _ _ x y y x y x z ",
"A B B A A A A _ _ _ _ _ _ _ _ _ _ _ _ _ _ B A C A D C A ",
"E F F G F G F _ _ _ _ _ _ _ _ _ _ _ _ _ _ E F E F F E F ",
"H I I I I I I I H I J I H I I I I I I H I I I I I I I I ",
"K L K M K M K M M K L M M K M M M N L M M M K M M M M K ",
"O P O O O O P P O Q O P Q O O P P P Q Q Q O O O O Q P Q ",
"R S R R R S S R S R S S S S T R S S R R R S U R S U R R ",
"V W V V V V V V V V X X X V V V V V V V V V V W V V V X ",
"Y Z Z Z Z Z Z Z Z Y ` ` Z Z Z Z Y Y Z ` ` Z Y ` ` Z Z ` ",
" ............................. ............. .......+..."};
