/* XPM */
static char * stick_xpm[] = {
"28 28 97 2",
"  	c None",
". 	c #024DA7",
"+ 	c #024DAA",
"@ 	c #024DA9",
"# 	c #034DA9",
"$ 	c #024DAC",
"% 	c #034DAC",
"& 	c #034DAF",
"* 	c #034DAE",
"= 	c #024DAF",
"- 	c #034DB1",
"; 	c #044DB1",
"> 	c #044DB2",
", 	c #034DB2",
"' 	c #044DB4",
") 	c #034DB4",
"! 	c #034DB3",
"~ 	c #044DB3",
"{ 	c #044DB7",
"] 	c #044DB6",
"^ 	c #034DB7",
"/ 	c #034DB6",
"( 	c #054DB9",
"_ 	c #044DB9",
": 	c #84D6FF",
"< 	c #054DBC",
"[ 	c #044DBC",
"} 	c #054DBE",
"| 	c #044DBE",
"1 	c #054DBF",
"2 	c #044DBF",
"3 	c #054DC1",
"4 	c #054DC2",
"5 	c #064DC1",
"6 	c #064DC4",
"7 	c #054DC4",
"8 	c #064DC3",
"9 	c #064DC7",
"0 	c #064DC6",
"a 	c #054DC6",
"b 	c #054DC7",
"c 	c #074DCA",
"d 	c #074DC9",
"e 	c #064DCA",
"f 	c #064DC9",
"g 	c #074DCC",
"h 	c #064DCB",
"i 	c #064DCC",
"j 	c #074DCB",
"k 	c #074DCE",
"l 	c #074DCF",
"m 	c #064DCE",
"n 	c #064DCF",
"o 	c #084DD2",
"p 	c #074DD1",
"q 	c #084DD1",
"r 	c #074DD2",
"s 	c #074DD4",
"t 	c #084DD4",
"u 	c #084DD3",
"v 	c #074DD3",
"w 	c #084DD6",
"x 	c #084DD7",
"y 	c #074DD6",
"z 	c #074DD7",
"A 	c #084DD9",
"B 	c #094DD9",
"C 	c #084DDA",
"D 	c #084DDC",
"E 	c #094DDC",
"F 	c #094DDB",
"G 	c #084DDB",
"H 	c #094DDF",
"I 	c #094DDE",
"J 	c #084DDE",
"K 	c #084DDF",
"L 	c #094DE1",
"M 	c #0A4DE1",
"N 	c #0A4DE2",
"O 	c #094DE4",
"P 	c #0A4DE3",
"Q 	c #094DE3",
"R 	c #0A4DE4",
"S 	c #094DE6",
"T 	c #0A4DE6",
"U 	c #0A4DE7",
"V 	c #0A4DE9",
"W 	c #0B4DE9",
"X 	c #0A4DEA",
"Y 	c #0A4DEB",
"Z 	c #0A4DEC",
"` 	c #0B4DEB",
" .	c #0B4DEC",
"..	c #0B4DEE",
"+.	c #0A4DEE",
"@.	c #0B4DEF",
"#.	c #0A4DEF",
". . . . . . . . . . . . . . . . . . . . . . . . . . . . ",
"+ @ @ + + + @ @ @ @ # @ @ # # @ + + # # @ # + @ @ + + @ ",
"$ $ % % $ % $ % % % $ % % % $ % $ % $ % % $ % % $ $ $ % ",
"& * * * & * & & & * & * * * * * * * & & & & * * * & * = ",
"- - - ; - - > , - - - ; - , ; - - ; ; - - - , - ; - - - ",
"' ' ' ' ) ' ! ' ' ' ) ) ' ' ~ ~ ' ) ' ) ' ~ ) ' ' ' ' ' ",
"{ { { { ] { ] ] { { ] ] ] ^ { ] { / ] ] { ] ] { { { { ] ",
"( _ ( _ _ _ ( : : : : : : : : : : : : : : _ _ ( _ _ _ _ ",
"< < [ [ < [ < : : : : : : : : : : : : : : < < < < < [ < ",
"} | 1 } 1 } 1 : : } 1 } 1 } | 1 1 } 1 : : } 1 } 2 } } 2 ",
"3 3 3 3 3 4 3 : : 4 3 4 3 4 3 3 4 3 4 : : 3 3 3 5 3 3 5 ",
"6 7 6 6 6 6 6 : : 6 7 7 7 8 7 6 7 6 7 : : 7 6 6 6 7 7 6 ",
"9 9 0 0 9 a 0 : : 0 0 0 9 0 0 0 a a 0 : : 9 0 0 9 b 9 a ",
"c c d e f d f : : f f f e c f f f f f : : e e f e d f f ",
"g h h i g g i : : g j g g g g g i g g : : h g g g i i i ",
"k k k k k l m : : l k l k k m n k l l : : k k k k l l m ",
"o p q p q p p : : p p p p p r p p q p : : r p p p p p p ",
"s t u s s t s : : s t s t t s t u v s : : u t s t s u s ",
"w x w x w w w : : x y w w z w x w y x : : w y x x z x w ",
"A A A A A A B : : : : : : : : : : : : : : A B C A A A A ",
"D E F D D D D : : : : : : : : : : : : : : D E D D G D D ",
"H H I I I H J H H I I I K I H I I I I H J H K I K I H I ",
"L L L L L L L L L L L L L L M L L L L L N L L L L L L L ",
"O P O O Q R O O Q O R Q O O P O Q P O R R R R P O O O O ",
"S T U U T T T T U U T U T S U T U T T T U T U U S T T S ",
"V V V W V X W W V X V V V V V V V V V V V V V V V V V V ",
"Y Y Z Z ` Z Z Z Z Z Y `  . . .Y Y Z Z Y Y Z  .Y Z Y  .` ",
"....+...+...+...@.@.....#...#.@...@.+.....#.+...@.+.+.+."};
